<svg height="512pt" viewBox="0 -4 512 512" width="512pt" xmlns="http://www.w3.org/2000/svg"><path d="m443.734375 34.390625h25.597656c18.851563 0 34.132813 15.28125 34.132813 34.132813v307.199218c0 18.851563-15.28125 34.132813-34.132813 34.132813h-409.597656v-375.464844zm0 0" fill="#35495e"/><path d="m59.734375 17.324219v477.863281h-51.199219v-494.929688h34.132813c9.414062.027344 17.039062 7.652344 17.066406 17.066407zm0 0" fill="#ff5364"/><path d="m179.199219 409.855469h153.601562v51.199219h-153.601562zm0 0" fill="#7f8c8d"/><path d="m145.066406 461.054688h221.867188c9.425781 0 17.066406 7.640624 17.066406 17.066406v17.066406h-256v-17.066406c0-9.425782 7.640625-17.066406 17.066406-17.066406zm0 0" fill="#95a5a5"/><path d="m503.464844 503.722656h-494.929688c-4.714844 0-8.535156-3.820312-8.535156-8.535156 0-4.710938 3.820312-8.53125 8.535156-8.53125h494.929688c4.714844 0 8.535156 3.820312 8.535156 8.53125 0 4.714844-3.820312 8.535156-8.535156 8.535156zm0 0" fill="#35495e"/><g fill="#802d40"><path d="m59.734375 25.855469v17.066406h-17.066406c-4.714844 0-8.535157-3.820313-8.535157-8.53125 0-4.714844 3.820313-8.535156 8.535157-8.535156zm0 0"/><path d="m59.734375 59.988281v17.066407h-17.066406c-4.714844 0-8.535157-3.820313-8.535157-8.53125 0-4.714844 3.820313-8.535157 8.535157-8.535157zm0 0"/><path d="m59.734375 94.121094v17.066406h-17.066406c-4.714844 0-8.535157-3.820312-8.535157-8.53125 0-4.714844 3.820313-8.535156 8.535157-8.535156zm0 0"/><path d="m59.734375 128.257812v17.066407h-17.066406c-4.714844 0-8.535157-3.820313-8.535157-8.535157 0-4.710937 3.820313-8.53125 8.535157-8.53125zm0 0"/><path d="m59.734375 162.390625v17.066406h-17.066406c-4.714844 0-8.535157-3.820312-8.535157-8.535156 0-4.710937 3.820313-8.53125 8.535157-8.53125zm0 0"/><path d="m59.734375 196.523438v17.066406h-17.066406c-4.714844 0-8.535157-3.820313-8.535157-8.535156 0-4.710938 3.820313-8.53125 8.535157-8.53125zm0 0"/><path d="m59.734375 230.65625v17.066406h-17.066406c-4.714844 0-8.535157-3.820312-8.535157-8.535156 0-4.710938 3.820313-8.53125 8.535157-8.53125zm0 0"/><path d="m59.734375 264.789062v17.066407h-17.066406c-4.714844 0-8.535157-3.820313-8.535157-8.53125 0-4.714844 3.820313-8.535157 8.535157-8.535157zm0 0"/><path d="m59.734375 298.921875v17.066406h-17.066406c-4.714844 0-8.535157-3.820312-8.535157-8.53125 0-4.714843 3.820313-8.535156 8.535157-8.535156zm0 0"/><path d="m59.734375 333.054688v17.066406h-17.066406c-4.714844 0-8.535157-3.820313-8.535157-8.53125 0-4.714844 3.820313-8.535156 8.535157-8.535156zm0 0"/><path d="m59.734375 367.1875v17.070312h-17.066406c-4.714844 0-8.535157-3.824218-8.535157-8.535156 0-4.710937 3.820313-8.535156 8.535157-8.535156zm0 0"/><path d="m59.734375 401.324219v17.066406h-17.066406c-4.714844 0-8.535157-3.820313-8.535157-8.535156 0-4.710938 3.820313-8.53125 8.535157-8.53125zm0 0"/><path d="m59.734375 435.457031v17.066407h-17.066406c-4.714844 0-8.535157-3.820313-8.535157-8.535157 0-4.710937 3.820313-8.53125 8.535157-8.53125zm0 0"/></g><path d="m119.464844 77.054688h93.867187c9.425781 0 17.066407 7.640624 17.066407 17.066406v68.269531c0 9.425781-7.640626 17.066406-17.066407 17.066406h-93.867187c-9.425782 0-17.066406-7.640625-17.066406-17.066406v-68.269531c0-9.425782 7.640624-17.066406 17.066406-17.066406zm0 0" fill="#4482c3"/><path d="m281.601562 77.054688h93.863282v102.402343h-93.863282c-9.425781 0-17.066406-7.640625-17.066406-17.066406v-68.269531c0-9.425782 7.640625-17.066406 17.066406-17.066406zm0 0" fill="#4482c3"/><path d="m119.464844 222.121094h-17.066406c-4.710938 0-8.53125-3.820313-8.53125-8.53125 0-4.714844 3.820312-8.535156 8.53125-8.535156h17.066406c4.714844 0 8.535156 3.820312 8.535156 8.535156 0 4.710937-3.820312 8.53125-8.535156 8.53125zm0 0" fill="#547580"/><path d="m230.398438 222.121094h-76.796876c-4.714843 0-8.535156-3.820313-8.535156-8.53125 0-4.714844 3.820313-8.535156 8.535156-8.535156h76.796876c4.714843 0 8.535156 3.820312 8.535156 8.535156 0 4.710937-3.820313 8.53125-8.535156 8.53125zm0 0" fill="#547580"/><path d="m230.398438 256.257812h-128c-4.710938 0-8.53125-3.824218-8.53125-8.535156 0-4.710937 3.820312-8.535156 8.53125-8.535156h128c4.714843 0 8.535156 3.824219 8.535156 8.535156 0 4.710938-3.820313 8.535156-8.535156 8.535156zm0 0" fill="#547580"/><path d="m281.601562 222.121094h-17.066406c-4.714844 0-8.535156-3.820313-8.535156-8.53125 0-4.714844 3.820312-8.535156 8.535156-8.535156h17.066406c4.710938 0 8.53125 3.820312 8.53125 8.535156 0 4.710937-3.820312 8.53125-8.53125 8.53125zm0 0" fill="#547580"/><path d="m375.464844 222.121094h-59.730469c-4.714844 0-8.535156-3.820313-8.535156-8.53125 0-4.714844 3.820312-8.535156 8.535156-8.535156h59.730469c4.714844 0 8.535156 3.820312 8.535156 8.535156 0 4.710937-3.820312 8.53125-8.535156 8.53125zm0 0" fill="#547580"/><path d="m375.464844 256.257812h-110.929688c-4.714844 0-8.535156-3.824218-8.535156-8.535156 0-4.710937 3.820312-8.535156 8.535156-8.535156h110.929688c4.714844 0 8.535156 3.824219 8.535156 8.535156 0 4.710938-3.820312 8.535156-8.535156 8.535156zm0 0" fill="#547580"/><path d="m503.464844 341.589844v34.132812c0 18.851563-15.28125 34.132813-34.132813 34.132813h-409.597656v-68.265625zm0 0" fill="#95a5a5"/><path d="m443.734375 34.132812v34.390626h-68.269531v-34.390626c0-18.851562 15.285156-34.132812 34.136718-34.132812 18.851563 0 34.132813 15.28125 34.132813 34.132812zm0 0" fill="#fb7b76"/><path d="m375.464844 68.523438h68.269531v34.132812h-68.269531zm0 0" fill="#bdc3c7"/><path d="m443.734375 102.65625v202.667969l-.511719 1.277343c-7.574218-10.941406-20.34375-17.101562-33.621094-16.210937-13.28125-.890625-26.050781 5.269531-33.621093 16.210937l-.515625-1.277343v-202.667969zm0 0" fill="#cc4b4c"/><path d="m409.601562 298.921875c-4.714843 0-8.535156-3.820313-8.535156-8.53125v-153.601563c0-4.710937 3.820313-8.53125 8.535156-8.53125 4.710938 0 8.53125 3.820313 8.53125 8.53125v153.601563c0 4.710937-3.820312 8.53125-8.53125 8.53125zm0 0" fill="#802f34"/><path d="m443.222656 306.601562-25.6875 63.832032c-1.324218 3.210937-4.457031 5.308594-7.933594 5.308594-3.476562 0-6.613281-2.097657-7.9375-5.308594l-25.683593-63.832032c7.570312-10.941406 20.339843-17.101562 33.621093-16.210937 13.277344-.890625 26.046876 5.269531 33.621094 16.210937zm0 0" fill="#bdc3c7"/></svg>